<svg data-v-423bf9ae="" xmlns="http://www.w3.org/2000/svg" viewBox="0 0 124.68437184550858 60" class="font"><!----><!----><!----><g data-v-423bf9ae="" id="9a9f951e-5f5d-4213-a683-8bf11e817422" fill="black" transform="matrix(3.3222588835864744,0,0,3.3222588835864744,5.136680414352668e-8,-7.873754127571907)"><path d="M4.89 11.72L4.89 11.72Q3.92 11.72 3.33 10.95L3.33 10.95L3.33 10.95Q2.74 10.19 2.74 9.29L2.74 9.29L2.74 9.29Q2.74 8.39 3.20 7.26L3.20 7.26L3.20 7.26Q3.65 6.13 4.52 5.21L4.52 5.21L4.52 5.21Q5.39 4.30 6.38 4.14L6.38 4.14L6.38 4.14Q6.37 4.13 6.37 4.07L6.37 4.07L6.37 4.07Q6.37 3.72 6.21 3.59L6.21 3.59L6.21 3.59Q6.05 3.46 5.66 3.46L5.66 3.46L5.66 3.46Q4.75 3.46 3.74 4.47L3.74 4.47L3.74 4.47Q2.73 5.49 2.06 6.94L2.06 6.94L2.06 6.94Q1.40 8.40 1.40 9.63L1.40 9.63L1.40 9.63Q1.40 10.74 1.88 11.72L1.88 11.72L1.88 11.72Q2.11 12.22 2.60 12.53L2.60 12.53L2.60 12.53Q3.09 12.84 3.77 12.84L3.77 12.84L3.77 12.84Q4.97 12.84 5.99 11.48L5.99 11.48L5.99 11.48Q5.43 11.72 4.89 11.72L4.89 11.72ZM5.84 10.44L5.84 10.44L5.84 10.44Q6.27 10.44 6.72 10.30L6.72 10.30L6.72 10.30Q7.59 8.54 7.59 7.03L7.59 7.03L7.59 7.03Q7.59 6.20 7.22 5.60L7.22 5.60L7.22 5.60Q6.85 5.00 6.15 5.00L6.15 5.00L6.15 5.00Q5.25 5.00 4.54 6.00L4.54 6.00L4.54 6.00Q3.82 7.00 3.82 8.13L3.82 8.13L3.82 8.13Q3.82 9.25 4.49 9.85L4.49 9.85L4.49 9.85Q5.15 10.44 5.84 10.44ZM6.64 2.37L6.64 2.37Q6.92 2.37 7.17 2.59L7.17 2.59L7.17 2.59Q7.43 2.81 7.43 3.10L7.43 3.10L7.43 3.10Q7.43 3.39 7.24 3.69L7.24 3.69L7.24 3.69Q7.04 3.99 6.78 4.12L6.78 4.12L6.78 4.12Q7.49 4.12 7.88 4.70L7.88 4.70L7.88 4.70Q8.27 5.28 8.27 6.08L8.27 6.08L8.27 6.08Q8.27 7.87 7.41 9.95L7.41 9.95L7.41 9.95Q7.87 9.62 8.26 9.14L8.26 9.14L8.26 9.14Q8.39 8.97 8.44 8.97L8.44 8.97L8.44 8.97Q8.48 8.97 8.54 9.04L8.54 9.04L8.54 9.04Q8.60 9.10 8.60 9.17L8.60 9.17L8.60 9.17Q8.58 9.39 8.09 9.95L8.09 9.95L8.09 9.95Q7.60 10.51 6.94 10.98L6.94 10.98L6.94 10.98Q6.05 12.70 4.84 13.79L4.84 13.79L4.84 13.79Q3.64 14.88 2.45 14.88L2.45 14.88L2.45 14.88Q1.26 14.88 0.63 13.97L0.63 13.97L0.63 13.97Q0 13.06 0 11.68L0 11.68L0 11.68Q0 10.29 0.46 8.89L0.46 8.89L0.46 8.89Q0.91 7.49 1.64 6.35L1.64 6.35L1.64 6.35Q2.37 5.21 3.24 4.29L3.24 4.29L3.24 4.29Q4.12 3.37 5.01 2.87L5.01 2.87L5.01 2.87Q5.91 2.37 6.64 2.37L6.64 2.37ZM7.57 12.29L7.57 12.29L7.20 12.32L7.20 12.32Q6.94 12.32 6.94 12.19L6.94 12.19L6.94 12.19Q6.94 12.00 7.44 11.45L7.44 11.45L7.44 11.45Q7.94 10.89 8.33 10.89L8.33 10.89L8.33 10.89Q8.50 10.89 8.63 10.99L8.63 10.99L8.63 10.99Q8.76 11.09 8.78 11.23L8.78 11.23L8.85 11.86L8.85 11.86Q8.89 11.91 8.93 11.91L8.93 11.91L8.93 11.91Q8.97 11.91 9.16 11.69L9.16 11.69L9.16 11.69Q9.74 11.00 10.21 11.00L10.21 11.00L10.21 11.00Q10.39 11.00 10.50 11.06L10.50 11.06L10.50 11.06Q10.61 11.12 10.76 11.28L10.76 11.28L10.76 11.28Q10.91 11.44 10.92 11.45L10.92 11.45L10.92 11.45Q11.02 11.41 11.12 11.41L11.12 11.41L11.12 11.41Q11.27 11.41 11.27 11.60L11.27 11.60L11.27 11.60Q11.27 11.79 10.72 12.30L10.72 12.30L10.72 12.30Q10.18 12.81 9.91 12.81L9.91 12.81L9.91 12.81Q9.65 12.81 9.46 12.57L9.46 12.57L9.46 12.57Q9.28 12.33 9.20 12.33L9.20 12.33L9.20 12.33Q8.88 12.33 8.88 12.67L8.88 12.67L8.88 12.67Q8.88 12.92 9.11 13.52L9.11 13.52L9.11 13.52Q9.34 14.13 9.34 14.24L9.34 14.24L9.34 14.24Q9.34 14.52 9.05 14.68L9.05 14.68L9.05 14.68Q8.76 14.84 8.42 14.84L8.42 14.84L8.42 14.84Q8.08 14.84 7.87 14.73L7.87 14.73L7.87 14.73Q7.66 14.62 7.66 14.42L7.66 14.42L8.05 12.73L8.05 12.73Q8.05 12.29 7.57 12.29ZM13.93 8.82L13.93 8.82L13.93 8.82Q13.93 10.54 14.22 11.63L14.22 11.63L14.22 11.63Q14.57 10.74 14.80 9.63L14.80 9.63L14.80 9.63Q15.04 8.51 15.04 8.05L15.04 8.05L15.04 8.05Q15.04 6.57 14.66 6.57L14.66 6.57L14.66 6.57Q14.34 6.57 14.13 7.37L14.13 7.37L14.13 7.37Q13.93 8.18 13.93 8.82ZM16.00 13.41L16.00 13.41L16.53 13.27L16.53 13.27Q16.72 13.27 16.72 13.43L16.72 13.43L16.72 13.43Q16.72 13.55 16.48 13.81L16.48 13.81L16.48 13.81Q16.24 14.07 15.79 14.35L15.79 14.35L15.79 14.35Q15.34 14.63 14.92 14.63L14.92 14.63L14.92 14.63Q14 14.63 13.59 13.62L13.59 13.62L13.59 13.62Q12.78 14.62 11.75 14.62L11.75 14.62L11.75 14.62Q11.21 14.62 10.98 14.23L10.98 14.23L10.98 14.23Q10.74 13.85 10.74 13.27L10.74 13.27L10.74 13.27Q10.74 12.50 11.58 11.69L11.58 11.69L11.58 11.69Q12.43 10.88 12.92 10.88L12.92 10.88L12.92 10.88Q13.05 10.88 13.09 11.03L13.09 11.03L13.09 11.03Q13.09 11.14 12.73 11.38L12.73 11.38L12.73 11.38Q12.18 11.72 12.18 12.25L12.18 12.25L12.18 12.25Q12.18 12.84 12.50 13.01L12.50 13.01L12.50 13.01Q12.74 13.15 12.94 13.15L12.94 13.15L12.94 13.15Q13.15 13.15 13.38 12.95L13.38 12.95L13.38 12.95Q13.23 12.19 13.23 11.12L13.23 11.12L13.23 11.12Q13.23 10.05 13.40 8.86L13.40 8.86L13.40 8.86Q13.58 7.66 13.98 6.68L13.98 6.68L13.98 6.68Q14.38 5.70 14.88 5.70L14.88 5.70L14.88 5.70Q15.20 5.70 15.36 6.15L15.36 6.15L15.36 6.15Q15.51 6.59 15.51 7.25L15.51 7.25L15.51 7.25Q15.51 7.91 15.24 9.43L15.24 9.43L15.24 9.43Q14.97 10.95 14.42 12.21L14.42 12.21L14.42 12.21Q14.94 13.41 16.00 13.41ZM17.35 6.19L17.35 6.19L17.35 6.19Q16.77 6.19 16.77 9.98L16.77 9.98L16.77 10.82L16.77 10.82Q17.14 9.90 17.45 8.78L17.45 8.78L17.45 8.78Q17.77 7.66 17.77 6.92L17.77 6.92L17.77 6.92Q17.77 6.19 17.35 6.19ZM16.91 13.44L16.91 13.44L16.91 13.44Q17.05 13.44 17.72 12.52L17.72 12.52L17.72 12.52Q18.40 11.59 18.58 11.58L18.58 11.58L18.58 11.58Q18.76 11.58 18.94 11.89L18.94 11.89L18.94 11.89Q19.12 12.19 19.30 12.56L19.30 12.56L19.30 12.56Q19.47 12.94 19.87 13.25L19.87 13.25L19.87 13.25Q20.26 13.57 20.65 13.57L20.65 13.57L20.65 13.57Q21.04 13.57 21.13 13.51L21.13 13.51L21.13 13.51Q21.21 13.45 21.26 13.45L21.26 13.45L21.26 13.45Q21.31 13.45 21.31 13.57L21.31 13.57L21.31 13.57Q21.29 13.85 20.86 14.24L20.86 14.24L20.86 14.24Q20.43 14.64 19.71 14.64L19.71 14.64L19.71 14.64Q18.51 14.64 18.03 13.26L18.03 13.26L18.03 13.26Q17.99 13.17 17.96 13.17L17.96 13.17L17.96 13.17Q17.92 13.17 17.85 13.23L17.85 13.23L17.85 13.23Q17.78 13.29 17.56 13.55L17.56 13.55L17.56 13.55Q17.33 13.82 17.10 14.10L17.10 14.10L17.10 14.10Q16.87 14.38 16.81 14.43L16.81 14.43L16.81 14.43Q16.76 14.49 16.60 14.49L16.60 14.49L16.60 14.49Q16.45 14.49 16.44 14.32L16.44 14.32L16.44 14.32Q16.31 13.06 16.31 11.68L16.31 11.68L16.31 11.68Q16.31 10.30 16.35 9.55L16.35 9.55L16.35 9.55Q16.38 8.79 16.49 7.60L16.49 7.60L16.49 7.60Q16.60 6.41 16.89 5.66L16.89 5.66L16.89 5.66Q17.18 4.90 17.61 4.90L17.61 4.90L17.61 4.90Q18.52 4.90 18.52 6.17L18.52 6.17L18.52 6.17Q18.52 7.27 17.93 8.92L17.93 8.92L17.93 8.92Q17.35 10.58 16.80 11.55L16.80 11.55L16.80 11.55Q16.86 13.44 16.91 13.44ZM24.47 12.33L24.47 12.33L24.42 12.73L24.42 12.73Q24.42 12.98 24.63 13.25L24.63 13.25L24.63 13.25Q24.85 13.52 25.14 13.52L25.14 13.52L25.14 13.52Q25.37 13.52 25.51 13.43L25.51 13.43L25.51 13.43Q25.82 13.22 25.89 13.14L25.89 13.14L25.89 13.14Q25.97 13.06 26.15 13.06L26.15 13.06L26.15 13.06Q26.32 13.06 26.32 13.19L26.32 13.19L26.32 13.19Q26.32 13.33 25.66 14.07L25.66 14.07L25.66 14.07Q25.45 14.31 25.05 14.57L25.05 14.57L25.05 14.57Q24.64 14.84 24.33 14.84L24.33 14.84L24.33 14.84Q24.01 14.84 23.85 14.73L23.85 14.73L23.85 14.73Q23.69 14.63 23.62 14.41L23.62 14.41L23.62 14.41Q23.53 14.10 23.53 13.65L23.53 13.65L23.53 13.65Q23.53 13.59 23.46 13.59L23.46 13.59L23.46 13.59Q23.39 13.59 23.14 13.87L23.14 13.87L23.14 13.87Q22.36 14.69 21.88 14.69L21.88 14.69L21.88 14.69Q21.39 14.69 21.13 14.43L21.13 14.43L21.13 14.43Q20.87 14.18 20.87 13.79L20.87 13.79L20.87 13.79Q20.87 13.10 21.24 12.48L21.24 12.48L21.24 12.48Q21.60 11.86 22.11 11.48L22.11 11.48L22.11 11.48Q23.23 10.65 23.84 10.65L23.84 10.65L23.84 10.65Q24.77 10.68 24.77 11.31L24.77 11.31L24.77 11.31Q24.77 11.54 24.57 11.75L24.57 11.75L24.57 11.75Q24.37 11.97 24.21 11.97L24.21 11.97L24.21 11.97Q24.04 11.97 23.74 11.68L23.74 11.68L23.74 11.68Q23.45 11.38 23.10 11.38L23.10 11.38L23.10 11.38Q22.75 11.38 22.53 11.67L22.53 11.67L22.53 11.67Q22.30 11.96 22.30 12.40L22.30 12.40L22.30 12.40Q22.30 13.13 23.07 13.13L23.07 13.13L23.07 13.13Q23.38 13.13 23.58 12.98L23.58 12.98L23.58 12.98Q23.79 12.82 23.87 12.64L23.87 12.64L23.87 12.64Q24.11 12.17 24.30 12.17L24.30 12.17L24.30 12.17Q24.47 12.17 24.47 12.33ZM23.82 9.77L23.82 9.77L23.82 9.77Q23.60 9.53 23.60 9.18L23.60 9.18L23.60 9.18Q23.60 8.83 23.82 8.60L23.82 8.60L23.82 8.60Q24.04 8.36 24.36 8.36L24.36 8.36L24.36 8.36Q24.68 8.36 24.90 8.60L24.90 8.60L24.90 8.60Q25.12 8.83 25.12 9.18L25.12 9.18L25.12 9.18Q25.12 9.53 24.90 9.77L24.90 9.77L24.90 9.77Q24.68 10.01 24.36 10.01L24.36 10.01L24.36 10.01Q24.04 10.01 23.82 9.77ZM21.86 9.77L21.86 9.77L21.86 9.77Q21.64 9.53 21.64 9.18L21.64 9.18L21.64 9.18Q21.64 8.83 21.86 8.60L21.86 8.60L21.86 8.60Q22.08 8.36 22.40 8.36L22.40 8.36L22.40 8.36Q22.72 8.36 22.94 8.60L22.94 8.60L22.94 8.60Q23.16 8.83 23.16 9.18L23.16 9.18L23.16 9.18Q23.16 9.53 22.94 9.77L22.94 9.77L22.94 9.77Q22.72 10.01 22.40 10.01L22.40 10.01L22.40 10.01Q22.08 10.01 21.86 9.77ZM26.03 12.92L26.03 12.92L26.03 12.92Q26.03 12.70 26.46 12.19L26.46 12.19L26.46 12.19Q26.89 11.68 27.17 11.68L27.17 11.68L27.17 11.68Q27.44 11.68 27.57 11.89L27.57 11.89L27.57 11.89Q27.71 12.10 27.73 12.35L27.73 12.35L27.73 12.35Q27.76 12.60 27.90 12.81L27.90 12.81L27.90 12.81Q28.03 13.02 28.29 13.02L28.29 13.02L28.29 13.02Q28.55 13.02 28.75 12.79L28.75 12.79L28.75 12.79Q28.95 12.56 29.08 12.27L29.08 12.27L29.08 12.27Q29.20 11.98 29.41 11.75L29.41 11.75L29.41 11.75Q29.62 11.52 29.83 11.52L29.83 11.52L29.83 11.52Q30.03 11.52 30.11 11.69L30.11 11.69L30.11 11.69Q30.98 13.55 31.88 13.55L31.88 13.55L31.88 13.55Q32.02 13.55 32.13 13.51L32.13 13.51L32.13 13.51Q32.24 13.47 32.30 13.47L32.30 13.47L32.30 13.47Q32.47 13.47 32.47 13.73L32.47 13.73L32.47 13.73Q32.47 14.21 31.97 14.59L31.97 14.59L31.97 14.59Q31.47 14.97 30.95 14.97L30.95 14.97L30.95 14.97Q30.44 14.97 30.08 14.63L30.08 14.63L30.08 14.63Q29.72 14.29 29.59 13.94L29.59 13.94L29.59 13.94Q29.46 13.58 29.39 13.24L29.39 13.24L29.39 13.24Q29.33 12.91 29.26 12.91L29.26 12.91L29.26 12.91Q29.15 12.91 28.82 13.35L28.82 13.35L28.82 13.35Q28.49 13.79 28.08 14.24L28.08 14.24L28.08 14.24Q27.66 14.69 27.34 14.69L27.34 14.69L27.34 14.69Q27.01 14.64 26.81 14.36L26.81 14.36L26.81 14.36Q26.61 14.07 26.56 13.76L26.56 13.76L26.56 13.76Q26.43 12.92 26.03 12.92ZM35.15 15.48L35.15 15.48Q34.72 16.13 34.59 16.63L34.59 16.63L34.59 16.63Q34.47 17.14 34.47 17.84L34.47 17.84L34.47 17.84Q34.47 18.54 34.85 18.58L34.85 18.58L34.85 18.58Q35.17 18.58 35.17 16.59L35.17 16.59L35.17 16.59Q35.17 15.90 35.15 15.48L35.15 15.48ZM35.15 14.99L35.15 14.99L35.15 14.99Q35.13 14.55 35.13 13.62L35.13 13.62L35.13 13.62Q35.10 13.62 34.92 13.80L34.92 13.80L34.92 13.80Q34.75 13.97 34.53 14.17L34.53 14.17L34.53 14.17Q34.31 14.38 33.99 14.55L33.99 14.55L33.99 14.55Q33.66 14.73 33.22 14.73L33.22 14.73L33.22 14.73Q32.79 14.73 32.52 14.46L32.52 14.46L32.52 14.46Q32.24 14.20 32.24 13.75L32.24 13.75L32.24 13.75Q32.24 12.78 33.19 11.75L33.19 11.75L33.19 11.75Q34.13 10.72 35.25 10.72L35.25 10.72L35.25 10.72Q35.60 10.72 35.82 10.88L35.82 10.88L35.82 10.88Q36.04 11.05 36.04 11.30L36.04 11.30L36.04 11.30Q36.04 11.52 35.87 11.72L35.87 11.72L35.87 11.72Q35.57 12.05 35.13 12.05L35.13 12.05L35.13 12.05Q34.96 12.05 34.96 11.96L34.96 11.96L34.96 11.96Q34.96 11.90 34.99 11.83L34.99 11.83L34.99 11.83Q35.03 11.76 35.03 11.65L35.03 11.65L35.03 11.65Q35.03 11.37 34.76 11.37L34.76 11.37L34.76 11.37Q34.33 11.37 34.03 11.75L34.03 11.75L34.03 11.75Q33.74 12.12 33.74 12.49L33.74 12.49L33.74 12.49Q33.74 12.85 33.92 13.03L33.92 13.03L33.92 13.03Q34.09 13.20 34.31 13.20L34.31 13.20L34.31 13.20Q34.54 13.20 34.83 12.99L34.83 12.99L34.83 12.99Q35.13 12.78 35.21 12.52L35.21 12.52L35.21 12.52Q35.31 12.15 35.64 12.15L35.64 12.15L35.64 12.15Q35.77 12.15 35.77 12.34L35.77 12.34L35.77 12.34Q35.77 12.53 35.68 12.86L35.68 12.86L35.68 12.86Q35.59 13.19 35.55 13.45L35.55 13.45L35.55 13.45Q35.52 13.71 35.52 14.55L35.52 14.55L35.52 14.55Q36.37 13.54 37.07 12.89L37.07 12.89L37.07 12.89Q37.23 12.74 37.38 12.74L37.38 12.74L37.38 12.74Q37.53 12.74 37.53 12.84L37.53 12.84L37.53 12.84Q37.53 12.95 37.38 13.09L37.38 13.09L37.38 13.09Q36.16 14.20 35.53 14.98L35.53 14.98L35.53 14.98Q35.56 15.99 35.56 16.62L35.56 16.62L35.56 16.62Q35.56 18.34 35.30 19.38L35.30 19.38L35.30 19.38Q35.04 20.43 34.31 20.43L34.31 20.43L34.31 20.43Q33.85 20.43 33.60 19.98L33.60 19.98L33.60 19.98Q33.35 19.54 33.35 18.79L33.35 18.79L33.35 18.79Q33.35 17.26 35.15 14.99Z"></path></g><!----><!----></svg>